<svg data-name="Layer 1" xmlns="http://www.w3.org/2000/svg" viewBox="0 0 200 200"><rect width="200" height="200" rx="14" ry="14" style="fill:#fff"/><path d="M73.84 160.63c53.21 0 82.31-44.08 82.31-82.31 0-1.25 0-2.5-.08-3.74a58.81 58.81 0 0 0 14.43-15 57.81 57.81 0 0 1-16.61 4.55 29 29 0 0 0 12.72-16 58 58 0 0 1-18.37 7 29 29 0 0 0-49.3 26.38 82.15 82.15 0 0 1-59.63-30.17 29 29 0 0 0 9 38.62 28.67 28.67 0 0 1-13.1-3.62v.37a28.94 28.94 0 0 0 23.21 28.36 29 29 0 0 1-13.06.5 29 29 0 0 0 27 20.09A58 58 0 0 1 36.4 148a58.87 58.87 0 0 1-6.9-.4 81.93 81.93 0 0 0 44.34 13" style="fill:#666"/></svg>