<svg id="Layer_1" data-name="Layer 1" xmlns="http://www.w3.org/2000/svg" viewBox="0 0 200 200"><defs><style>.cls-2{fill:#666}</style></defs><rect width="200" height="200" rx="14" ry="14" style="fill:#fff"/><circle class="cls-2" cx="59.92" cy="69.09" r="7.58"/><circle class="cls-2" cx="97.29" cy="69.09" r="7.58"/><circle class="cls-2" cx="115.17" cy="107.01" r="6.5"/><circle class="cls-2" cx="146.04" cy="107.01" r="6.5"/><path class="cls-2" d="M41.69 141.06a5.53 5.53 0 0 1-3.54-1.29c-3.87-3.09-2.25-8.17-.83-12.65a33 33 0 0 0 1.24-4.59C25.16 112.74 17.5 98.6 17.5 83.58c0-28.39 27.35-51.49 61-51.49 31.62 0 58.32 20.83 60.78 47.42l-9 .83c-2-22-24.8-39.25-51.82-39.25-28.66 0-52 19.06-52 42.49 0 11.94 6.15 23.29 16.92 31.34l1.24.88c4.45 3.18 2.84 9 1.43 13.45l.58-.4c5-3.41 10.27-6.94 14.91-5.47a59 59 0 0 0 16.89 2.69 64.88 64.88 0 0 0 6.69-.35l.94 8.95a71.94 71.94 0 0 1-7.63.4 67.29 67.29 0 0 1-19.3-3c-1.51.23-5.36 2.84-7.45 4.26-3.68 2.47-6.98 4.73-9.99 4.73Z"/><path class="cls-2" d="M161.48 167.5c-3 0-5.93-2.06-8.81-4.07-1.36-1-3.82-2.67-4.91-3a60.07 60.07 0 0 1-16.88 2.57c-28.47 0-51.63-19.64-51.63-43.77s23.16-43.78 51.63-43.78 51.62 19.61 51.62 43.75c0 13-6.05 24.55-17.09 32.68.18 1 .54 2.41.79 3.36 1.13 4.42 2.42 9.42-1.9 11.58a6.09 6.09 0 0 1-2.82.68Zm-13.82-16.06c3.24 0 6.41 2 9.31 4-.91-3.84-1.33-7.56 1.65-9.8l.17-.12c9.49-6.45 14.71-15.81 14.71-26.34 0-19.18-19.12-34.78-42.62-34.78S88.25 100 88.25 119.2s19.12 34.8 42.63 34.8a51.29 51.29 0 0 0 14.33-2.12 7.54 7.54 0 0 1 2.45-.44Z"/></svg>