<svg id="Layer_1" data-name="Layer 1" xmlns="http://www.w3.org/2000/svg" viewBox="0 0 200 200"><defs><style>.cls-2{fill:#666}</style></defs><rect width="200" height="200" rx="14" ry="14" style="fill:#fff"/><path class="cls-2" d="M135.13 92.24c6.24-13.38 2.67-21.4-5.8-23.63s-25.41 2.23-32.54 4.9c7.57-24.07-7.58-26.3-19.17-23.18s-31.66 18.72-41 29-20.63 32.12-16 47.25C26.35 145.73 47.3 160 84.3 160c42.8 0 62.42-16.94 71.33-32.1 8.37-14.26-.44-33.9-20.5-35.66Zm-51.72 59.29c-27.19 1.78-47.28-11.54-47.7-27.2-.45-16.49 16.94-31.65 39.68-35.22 20.56-3.22 52.16 3.13 54.83 24.52s-20.08 36.15-46.81 37.9Z"/><path class="cls-2" d="M103.43 113.27C100 102 85.1 97.32 70.48 102.87c-12.57 4.77-17.77 16.47-14.74 28.18 2.14 8.24 16.44 16.22 30.35 11.7 16.04-5.2 20.45-19.39 17.34-29.48Zm-25.58 17.78c-4.26 4.26-9.38 4.12-11.7.87-2.17-3-2.6-7.37.43-10.41s8.88-2.83 11.71 0c3.03 3.04 1.3 7.8-.44 9.54Zm6.72-10a3.26 3.26 0 1 1 3.25-3.25 3.26 3.26 0 0 1-3.25 3.28ZM171.48 89a4.9 4.9 0 0 1-1.86-.37 5 5 0 0 1-2.77-6.5A30 30 0 0 0 139 40.91a30.56 30.56 0 0 0-7.52.94 5 5 0 1 1-2.5-9.68A40.05 40.05 0 0 1 179 70.9a39.74 39.74 0 0 1-2.88 14.92 5 5 0 0 1-4.64 3.18Z"/><path class="cls-2" d="M152.24 82a5 5 0 0 1-4.74-6.59 10.79 10.79 0 0 0 .55-3.39 10.62 10.62 0 0 0-10.61-10.61 10.41 10.41 0 0 0-2.84.39 5 5 0 1 1-2.67-9.64A20.61 20.61 0 0 1 158.05 72a20.29 20.29 0 0 1-1.05 6.59 5 5 0 0 1-4.76 3.41Z"/></svg>